# xmcd CD database file
#
# Track frame offsets:
#	150
#	23770
#	41312
#	61592
#	65822
#	86537
#	117790
#	131244
#	143394
#	159459
#	172282
#	187283
#	205391
#	206861
#	231945
#	242556
#	259856
#	285521
#
# Disc length: 3915 seconds
#
# Revision: 4
# Processed by: cddbd v1.5.2PL0 Copyright (c) Steve Scherf et al.
# Submitted via: CDex 1.70beta2
#
DISCID=0b0f4912
DTITLE=Various Artist - Stickin´it to you - Stickman and Sticksister Records
DYEAR=1900
DGENRE=Blues
TTITLE0=Motorpsycho - Hey Jane
TTITLE1=Fireside - Happy porno living
TTITLE2=Gore slut - Showing off bruises
TTITLE3=Matt burt - These days
TTITLE4=Locust Fudge - Alien V12
TTITLE5=35007 - This is what you get
TTITLE6=Motorpsycho - Mad Sun
TTITLE7=Mustang Ford - Clubstar
TTITLE8=Slut - Sensation
TTITLE9=Charming Prophets - Luna
TTITLE10=Fireside - Let Rasputin do it
TTITLE11=35007 - Soul Machine
TTITLE12=Matt Burt - The boobioes, the boobioes...
TTITLE13=Slut - Virus
TTITLE14=Gore Slut - Giraffe
TTITLE15=Mustang Ford - A dread of...
TTITLE16=Charming Prophets - Candida
TTITLE17=Klaus Cornefield - Little Grey mouse
EXTD=
EXTT0=
EXTT1=
EXTT2=
EXTT3=
EXTT4=
EXTT5=
EXTT6=
EXTT7=
EXTT8=
EXTT9=
EXTT10=
EXTT11=
EXTT12=
EXTT13=
EXTT14=
EXTT15=
EXTT16=
EXTT17=
PLAYORDER=
